<!-- Generated by IcoMoon.io -->
<svg version="1.1" xmlns="http://www.w3.org/2000/svg" width="1024" height="1024" viewBox="0 0 1024 1024">
<title></title>
<g id="icomoon-ignore">
</g>
<path fill="#000" d="M640 970.24h-256c-56.32 0-103.253-5.547-142.933-17.493-14.507-4.267-23.893-18.347-23.040-33.28 10.667-127.573 139.947-227.84 293.973-227.84s282.88 99.84 293.973 227.84c1.28 15.36-8.107 29.013-23.040 33.28-39.68 11.947-86.613 17.493-142.933 17.493zM286.72 898.133c28.16 5.547 60.16 8.107 97.28 8.107h256c37.12 0 69.12-2.56 97.28-8.107-22.613-81.92-116.053-142.507-225.28-142.507s-202.667 60.587-225.28 142.507z"></path>
<path fill="none" stroke-linejoin="round" stroke-linecap="butt" stroke-miterlimit="4" stroke-width="64" stroke="#000" d="M384 85.333c-213.333 0-298.667 85.333-298.667 298.667v256c0 161.28 48.64 249.6 164.267 282.453 9.813-110.933 123.733-198.827 262.4-198.827s252.587 87.893 261.973 198.827c116.053-32.853 164.693-121.173 164.693-282.453v-256c0-213.333-85.333-298.667-298.667-298.667h-256zM358.827 451.413c0-84.48 68.693-152.747 153.173-152.747s152.747 68.267 152.747 152.747c0 84.48-68.267 153.173-152.747 153.173s-153.173-68.693-153.173-153.173z"></path>
<path fill="#000" d="M511.573 636.587c-101.973 0-184.747-83.2-184.747-185.173s82.773-184.747 184.747-184.747c101.973 0 184.747 82.773 184.747 184.747s-82.773 185.173-184.747 185.173zM511.573 330.667c-66.56 0-120.747 54.187-120.747 120.747 0 66.987 54.187 121.173 120.747 121.173s120.747-54.187 120.747-121.173c0-66.56-54.187-120.747-120.747-120.747z"></path>
</svg>
