<!-- Generated by IcoMoon.io -->
<svg version="1.1" xmlns="http://www.w3.org/2000/svg" width="32" height="32" viewBox="0 0 32 32">
<title>icon-_-24-_-outline-_-key-square</title>
<path fill="none" stroke-linejoin="round" stroke-linecap="butt" stroke-miterlimit="4" stroke-width="2" stroke="#000" d="M20 29.333c6.667 0 9.333-2.667 9.333-9.333v-8c0-6.667-2.667-9.333-9.333-9.333h-8c-6.667 0-9.333 2.667-9.333 9.333v8c0 6.667 2.667 9.333 9.333 9.333h8z"></path>
<path fill="none" stroke-linejoin="round" stroke-linecap="butt" stroke-miterlimit="4" stroke-width="2" stroke="#000" d="M16.133 19.52l-3.453 3.427c-0.24 0.267-0.733 0.427-1.107 0.373l-1.6-0.213c-0.52-0.067-1-0.573-1.080-1.093l-0.213-1.6c-0.053-0.347 0.12-0.84 0.36-1.093l3.427-3.44c-0.573-1.907-0.12-4.067 1.387-5.573 2.16-2.16 5.68-2.16 7.853 0 2.16 2.147 2.16 5.667 0 7.84-1.507 1.507-3.667 1.973-5.573 1.373z"></path>
<path fill="none" stroke-linejoin="round" stroke-linecap="round" stroke-miterlimit="4" stroke-width="2" stroke="#000" d="M13.933 21.707l-1.147-1.147"></path>
<path fill="none" stroke-linejoin="round" stroke-linecap="round" stroke-miterlimit="4" stroke-width="2.6667" stroke="#000" d="M17.853 14.267h0.013"></path>
</svg>
