<!-- Generated by IcoMoon.io -->
<svg version="1.1" xmlns="http://www.w3.org/2000/svg" width="32" height="32" viewBox="0 0 32 32">
<title>setting</title>
<path d="M16 30.166c-0.899 0-1.808-0.199-2.508-0.614l-7.334-4.221c-2.992-2.015-3.174-2.326-3.174-5.483v-7.706c0-3.157 0.173-3.468 3.105-5.457l7.386-4.264c1.401-0.813 3.598-0.813 4.999 0l7.36 4.238c2.992 2.015 3.174 2.326 3.174 5.483v7.689c0 3.165-0.173 3.468-3.105 5.457l-7.386 4.264c-0.718 0.415-1.626 0.614-2.517 0.614zM16 3.823c-0.562 0-1.107 0.104-1.496 0.329l-7.334 4.247c-2.171 1.462-2.171 1.462-2.171 3.745v7.689c0 2.283 0 2.283 2.223 3.788l7.282 4.203c0.787 0.45 2.214 0.45 3.001 0l7.334-4.238c2.154-1.47 2.154-1.47 2.154-3.753v-7.689c0-2.283 0-2.283-2.223-3.788l-7.282-4.203c-0.389-0.225-0.934-0.329-1.488-0.329z"></path>
<path d="M16 20.999c-2.768 0-5.008-2.24-5.008-4.999 0-2.768 2.24-5.008 5.008-5.008 2.759 0 4.999 2.24 4.999 5.008 0 2.759-2.24 4.999-4.999 4.999zM16 12.999c-1.661 0-3.001 1.341-3.001 3.001 0 1.652 1.341 2.992 3.001 2.992 1.652 0 2.992-1.341 2.992-2.992 0-1.661-1.341-3.001-2.992-3.001z"></path>
</svg>
