<!-- Generated by IcoMoon.io -->
<svg version="1.1" xmlns="http://www.w3.org/2000/svg" width="32" height="32" viewBox="0 0 32 32">
<title>user-square</title>
<path d="M20 30.32h-8c-1.76 0-3.227-0.173-4.467-0.547-0.453-0.133-0.747-0.573-0.72-1.040 0.333-3.987 4.373-7.12 9.187-7.12s8.84 3.12 9.187 7.12c0.040 0.48-0.253 0.907-0.72 1.040-1.24 0.373-2.707 0.547-4.467 0.547zM8.96 28.067c0.88 0.173 1.88 0.253 3.040 0.253h8c1.16 0 2.16-0.080 3.040-0.253-0.707-2.56-3.627-4.453-7.040-4.453s-6.333 1.893-7.040 4.453z"></path>
<path fill="none" stroke-linejoin="round" stroke-linecap="butt" stroke-miterlimit="4" stroke-width="2" stroke="#000" d="M12 2.667c-6.667 0-9.333 2.667-9.333 9.333v8c0 5.040 1.52 7.8 5.133 8.827 0.307-3.467 3.867-6.213 8.2-6.213s7.893 2.747 8.187 6.213c3.627-1.027 5.147-3.787 5.147-8.827v-8c0-6.667-2.667-9.333-9.333-9.333h-8zM11.213 14.107c0-2.64 2.147-4.773 4.787-4.773s4.773 2.133 4.773 4.773c0 2.64-2.133 4.787-4.773 4.787s-4.787-2.147-4.787-4.787z"></path>
<path d="M15.987 19.893c-3.187 0-5.773-2.6-5.773-5.787s2.587-5.773 5.773-5.773c3.187 0 5.773 2.587 5.773 5.773s-2.587 5.787-5.773 5.787zM15.987 10.333c-2.080 0-3.773 1.693-3.773 3.773 0 2.093 1.693 3.787 3.773 3.787s3.773-1.693 3.773-3.787c0-2.080-1.693-3.773-3.773-3.773z"></path>
</svg>
